<svg width="11" height="12" viewBox="0 0 11 12" fill="none" xmlns="http://www.w3.org/2000/svg">
<path d="M10.4045 5.41842C10.3155 5.42665 10.2254 5.43214 10.1341 5.43214C9.10603 5.43214 8.20262 4.90342 7.67704 4.10427C7.67704 6.20072 7.67704 8.58602 7.67704 8.626C7.67704 10.4716 6.18064 11.968 4.33503 11.968C2.48941 11.968 0.993011 10.4716 0.993011 8.626C0.993011 6.78039 2.48941 5.28399 4.33503 5.28399C4.40479 5.28399 4.47299 5.29026 4.54158 5.29457V6.94147C4.47299 6.93324 4.40557 6.9207 4.33503 6.9207C3.39282 6.9207 2.62933 7.68419 2.62933 8.62639C2.62933 9.5686 3.39282 10.3321 4.33503 10.3321C5.27723 10.3321 6.10931 9.58977 6.10931 8.64756C6.10931 8.61032 6.12577 0.968018 6.12577 0.968018H7.69977C7.84792 2.37545 8.98414 3.48619 10.4045 3.58809V5.41842Z" fill="white"/>
</svg>
